# xmcd
#
# Track frame offsets: 
#        150
#        24672
#        55076
#        77909
#        106316
#        133949
#        171991
#        196754
#        227967
#        249092
#
# Disc length: 3683 seconds
#
# Revision: 0
# Processed by: cddbd v1.5.1PL0 Copyright (c) Steve Scherf et al.
# Submitted via: ExactAudioCopy v0.95a5
#
DISCID=800e610a
DTITLE=Eric Clapton and Band - Montreux  1986 Disc 2
DYEAR=1986
DGENRE=Blues
TTITLE0=Behind The Mask
TTITLE1=Badge
TTITLE2=Let It Rain
TTITLE3=In The Air Tonight 
TTITLE4=Cocaine
TTITLE5=Layla
TTITLE6=Sunshine Of Your Love
TTITLE7=Further Up The Road
TTITLE8=Rambling On My Mind
TTITLE9=Have You Ever Loved A Woman
EXTD=
EXTT0=
EXTT1=
EXTT2=
EXTT3=
EXTT4=
EXTT5=
EXTT6=
EXTT7=
EXTT8=
EXTT9=
PLAYORDER=
